# xmcd CD database file
#
# Track frame offsets:
#	150
#	13800
#	25942
#	42125
#	54547
#	67931
#	78022
#	96459
#	109312
#	125379
#	134798
#	147531
#
# Disc length: 2108 seconds
#
# Revision: 0
# Processed by: cddbd v1.5PL3 Copyright (c) Steve Scherf et al.
# Submitted via: CDex 1.51
#
DISCID=aa083a0c
DTITLE=Alberto Vazquez - Con Mariachi - Disco 2
DYEAR=1900
DGENRE=Español
TTITLE0=Cocula
TTITLE1=Pa' que me sirven las parrandas
TTITLE2=Amor con amor se paga
TTITLE3=Esta noche la paso contigo
TTITLE4=Por un amor
TTITLE5=Que manera de perder
TTITLE6=Ay Jalisco, no te rajes
TTITLE7=Llanto y mas llanto
TTITLE8=La llorona
TTITLE9=Una noche no
TTITLE10=Traigo un amor
TTITLE11=Maria de Jesus
EXTD=
EXTT0=
EXTT1=
EXTT2=
EXTT3=
EXTT4=
EXTT5=
EXTT6=
EXTT7=
EXTT8=
EXTT9=
EXTT10=
EXTT11=
PLAYORDER=
